<svg xmlns="http://www.w3.org/2000/svg" width="76" height="49" viewBox="0 0 76 49">
    <g fill="none" fill-rule="evenodd">
        <g fill="#50E3C2">
            <g>
                <g>
                    <path d="M100.65 32.995l.385.002c.216.001.431.004.648.01.47.012.945.04 1.41.124.472.084.912.223 1.34.441.422.215.807.495 1.142.83.334.334.614.72.83 1.141.218.429.357.868.44 1.341.085.465.112.94.125 1.41.005.216.008.432.01.647l.001.77V74.67l-.001.385c-.002.215-.005.431-.01.647-.013.47-.04.945-.125 1.41-.083.472-.222.911-.44 1.34-.216.422-.496.808-.83 1.142-.335.335-.72.615-1.141.83-.43.218-.869.357-1.34.442-.466.083-.941.11-1.41.123-.218.005-.433.009-.65.01l-.768.001H38.711l-.77-.002c-.215 0-.43-.004-.647-.009-.47-.012-.946-.04-1.41-.123-.472-.085-.912-.224-1.34-.443-.422-.214-.808-.494-1.142-.829-.335-.334-.615-.72-.83-1.142-.218-.429-.356-.868-.44-1.34-.085-.465-.113-.94-.125-1.41-.006-.216-.009-.432-.01-.647l-.001-.77V38.941c.002-.215.005-.431.01-.647.013-.47.041-.945.125-1.41.085-.473.223-.912.442-1.34.214-.423.494-.808.829-1.143.334-.334.72-.614 1.142-.829.428-.218.868-.357 1.34-.441.464-.084.94-.112 1.41-.124.216-.006.432-.009.648-.01.256-.002.513-.002.769-.002h61.94zm-.384 1.6H38.711l-.76.002c-.203.001-.408.003-.613.01-.36.009-.78.028-1.171.098-.34.062-.625.154-.898.293-.272.14-.52.318-.736.535-.216.217-.396.464-.534.735-.14.274-.232.559-.293.897-.07.394-.09.813-.1 1.172-.006.205-.008.41-.01.615v36.094c.002.203.004.408.01.613.01.358.03.777.1 1.168.06.342.154.626.293.9.138.272.318.52.533.734.218.218.464.398.735.535.276.14.56.234.9.295.396.07.833.09 1.17.1.2.004.406.006.612.007.254.002.503.002.752.002h61.565l.756-.002c.212 0 .418-.003.625-.008.33-.009.766-.029 1.166-.1.337-.06.621-.154.893-.292.274-.139.52-.318.737-.536.217-.216.396-.463.535-.736.14-.273.232-.557.292-.895.07-.39.09-.812.1-1.172.006-.204.009-.408.01-.612l.001-.762V39.332l-.002-.378c0-.209-.003-.413-.01-.616-.009-.361-.028-.782-.098-1.17-.061-.342-.153-.626-.292-.897-.14-.274-.32-.521-.536-.739-.217-.216-.464-.396-.734-.533-.274-.14-.56-.232-.9-.294-.39-.07-.81-.09-1.17-.099-.205-.006-.41-.008-.615-.01h-.758zm-11.935 17.61l3.11 10.033h.058l3.109-10.033h2.685l-4.628 12.99c-1.06 2.978-2.273 3.956-4.84 3.956-.2 0-.848-.024-1.024-.071v-2.037c.165.023.565.047.777.047 1.165 0 1.825-.495 2.225-1.767l.236-.753-4.463-12.365h2.755zm-35.965-1.511l.282.005c.588.045 2.286.227 3.373 1.834-.09.069-2.015 1.178-1.992 3.511.022 2.786 2.444 3.715 2.467 3.738-.023.069-.384 1.314-1.267 2.605-.77 1.133-1.563 2.243-2.83 2.266-1.223.022-1.63-.726-3.034-.726-1.403 0-1.856.703-3.01.748-1.223.045-2.151-1.201-2.92-2.334-1.586-2.287-2.786-6.455-1.156-9.264.793-1.405 2.242-2.288 3.803-2.31 1.2-.023 2.31.793 3.035.793.724 0 2.014-.952 3.53-.861zm27.213 1.358c3.014 0 4.98 1.578 4.98 4.028v8.454h-2.437v-2.037h-.059c-.694 1.33-2.226 2.167-3.886 2.167-2.45 0-4.157-1.46-4.157-3.65 0-2.179 1.66-3.427 4.722-3.616l3.286-.2v-.942c0-1.378-.907-2.131-2.52-2.131-1.331 0-2.296.683-2.497 1.73h-2.379c.072-2.201 2.144-3.803 4.947-3.803zm-11.806-4.51c3.297 0 5.593 2.273 5.593 5.582 0 3.32-2.343 5.605-5.676 5.605h-3.65v5.805h-2.638V47.542h6.37zm14.255 11.423l-2.932.188c-1.649.106-2.508.718-2.508 1.79 0 1.036.894 1.707 2.296 1.707 1.79 0 3.144-1.142 3.144-2.731v-.954zm-14.95-9.197H64.04v6.747h3.026c2.296 0 3.603-1.236 3.603-3.38 0-2.142-1.307-3.367-3.591-3.367zM52.66 46.246c.113 1.091-.318 2.159-.954 2.954-.658.773-1.702 1.385-2.747 1.295-.135-1.045.387-2.158.977-2.839.657-.796 1.793-1.364 2.724-1.41z" transform="translate(-455.000000, -3806.000000) translate(119.000000, 3665.000000) translate(305.000000, 109.000000)"/>
                </g>
            </g>
        </g>
    </g>
</svg>
