<svg xmlns="http://www.w3.org/2000/svg" width="36" height="48" viewBox="0 0 36 48">
    <g fill="none" fill-rule="evenodd">
        <g fill="#8345B9" fill-rule="nonzero">
            <g>
                <g>
                    <path d="M40.627 49.115c1.71 1.267 4.105.876 5.352-.87l4.501-6.316c1.245-1.745.866-4.188-.847-5.455-1.712-1.272-4.107-.884-5.35.863l-4.506 6.319c-1.242 1.746-.867 4.185.85 5.459zm20.554-8.911c-1.709-1.272-4.105-.882-5.348.861L37.817 66.344c-1.245 1.743-.864 4.188.845 5.454 1.714 1.268 4.11.883 5.352-.864L62.03 45.655c1.245-1.745.865-4.185-.85-5.451zM38.93 38.2c1.245-1.743.864-4.188-.844-5.455-1.716-1.267-4.111-.877-5.353.86-1.244 1.748-.865 4.191.847 5.458 1.71 1.269 4.108.882 5.35-.863zm27.339 34.732c-1.71-1.265-4.108-.877-5.35.865-1.242 1.745-.865 4.188.846 5.456 1.714 1.27 4.109.882 5.353-.865 1.243-1.743.862-4.188-.85-5.456zM59.22 62.885c-1.709-1.267-4.108-.879-5.348.866l-4.505 6.32c-1.242 1.744-.866 4.184.845 5.456 1.714 1.27 4.11.88 5.353-.866l4.507-6.319c1.24-1.745.862-4.188-.852-5.457z" transform="translate(-1064.000000, -3806.000000) translate(119.000000, 3665.000000) translate(913.000000, 109.000000)"/>
                </g>
            </g>
        </g>
    </g>
</svg>
