<svg xmlns="http://www.w3.org/2000/svg" width="23" height="23" viewBox="0 0 23 23">
    <g fill="none" fill-rule="evenodd">
        <g fill="#F4137B">
            <path d="M78.249 1736.105c1.076 0 1.951-.875 1.951-1.95v-1.307c-.003-.241-.14-.466-.36-.576l-10.406-5.203c-.182-.091-.397-.092-.58-.001l-10.493 5.203-.009.005c-.214.11-.35.33-.352.571v1.307c0 1.076.875 1.951 1.951 1.951h.65v6.703c-.757.268-1.3.991-1.3 1.84v.761c-.757.269-1.301.992-1.301 1.84v1.3c0 .36.291.651.65.651h20.9c.359 0 .65-.291.65-.65v-1.301c0-.848-.544-1.571-1.3-1.84v-.762c0-.848-.545-1.57-1.302-1.84v-6.702h.65zm-9.107-7.728l7.652 3.826H61.426l7.716-3.826zm-8.54 16.27c0-.358.291-.65.65-.65h15.696c.358 0 .65.292.65.65v.65H60.602v-.65zm1.3-1.95h1.301v-6.592h-1.3v6.591zm2.602 0h2.688v-6.592h-2.688v6.591zm3.989 0h1.3v-6.592h-1.3v6.591zm2.602 0h2.601v-6.592h-2.601v6.591zm3.902 0h1.3v-6.592h-1.3v6.591zm3.252 3.901c.358 0 .65.292.65.65v.651H59.301v-.65c0-.359.292-.65.65-.65H78.25zm-18.298-11.793c-.358 0-.65-.292-.65-.65v-.651h19.598v.65c0 .359-.292.65-.65.65H59.95z" transform="translate(-58.000000, -1727.000000)"/>
        </g>
    </g>
</svg>
