<svg xmlns="http://www.w3.org/2000/svg" width="32" height="32" viewBox="0 0 32 32">
    <g fill="none" fill-rule="evenodd">
        <g fill="#F4137B" fill-rule="nonzero">
            <path d="M157 6213c5.5 0 9.975 4.475 9.975 9.975 0 3.166-1.492 6.12-4.017 8v.833c.615.54 1.005 1.332 1.005 2.213 0 .775-.302 1.481-.794 2.008.492.527.794 1.233.794 2.008 0 1.322-.875 2.442-2.075 2.815-.387 2.35-2.43 4.148-4.888 4.148-2.457 0-4.501-1.799-4.887-4.148-1.201-.372-2.075-1.493-2.075-2.814 0-.776.301-1.482.793-2.009-.492-.526-.793-1.233-.793-2.008 0-.881.389-1.672 1.004-2.213v-.833c-2.525-1.88-4.017-4.834-4.017-8 0-5.5 4.475-9.975 9.975-9.975zm2.933 27.983h-5.866c.397 1.241 1.562 2.142 2.933 2.142 1.371 0 2.536-.9 2.933-2.142zm1.084-4.016h-8.034c-.59 0-1.07.48-1.07 1.07 0 .59.48 1.071 1.07 1.071h8.034c.59 0 1.07-.48 1.07-1.07 0-.591-.48-1.071-1.07-1.071zm0-4.017h-8.034c-.59 0-1.07.48-1.07 1.07 0 .591.48 1.072 1.07 1.072h8.034c.59 0 1.07-.48 1.07-1.071 0-.59-.48-1.071-1.07-1.071zm-15.791-4.26c.448-.259 1.022-.105 1.28.343.26.449.106 1.022-.343 1.281l-1.739 1.004c-.147.086-.309.126-.468.126-.324 0-.639-.168-.812-.469-.26-.448-.106-1.022.343-1.28zm22.267.344c.259-.449.832-.602 1.28-.344l1.74 1.004c.449.26.602.833.343 1.28-.173.302-.488.47-.812.47-.16 0-.32-.04-.468-.126l-1.74-1.004c-.448-.259-.602-.832-.343-1.28zM157 6214.875c-4.466 0-8.1 3.634-8.1 8.1 0 2.709 1.346 5.227 3.6 6.736.26.174.417.466.417.78v.586l.066-.002h1.071v-3.695l-1.346-1.346c-.366-.366-.366-.96 0-1.326.366-.366.96-.366 1.326 0l1.62 1.62c.176.177.275.415.275.664v4.083h2.142v-4.083c0-.25.099-.487.274-.663l1.621-1.621c.366-.366.96-.366 1.326 0 .366.366.366.96 0 1.326l-1.346 1.346v3.695h1.07l.067.002v-.587c0-.313.157-.605.417-.779 2.254-1.51 3.6-4.027 3.6-6.736 0-4.466-3.634-8.1-8.1-8.1zm-13.054 7.163c.518 0 .937.42.937.937 0 .518-.42.938-.937.938h-2.008c-.518 0-.938-.42-.938-.938s.42-.937.938-.937zm28.117 0c.517 0 .937.42.937.937 0 .518-.42.938-.938.938h-2.008c-.517 0-.937-.42-.937-.938s.42-.937.937-.937zm-2.487-7.406c.448-.259 1.021-.105 1.28.343.26.449.106 1.022-.343 1.28l-1.74 1.005c-.147.085-.308.126-.467.126-.324 0-.639-.168-.813-.47-.259-.447-.105-1.021.343-1.28zm-26.432.343c.259-.448.832-.602 1.28-.343l1.74 1.004c.448.259.602.832.343 1.28-.174.302-.489.47-.813.47-.16 0-.32-.04-.468-.126l-1.74-1.004c-.447-.259-.601-.832-.342-1.28z" transform="translate(-141.000000, -6213.000000)"/>
        </g>
    </g>
</svg>
