<svg xmlns="http://www.w3.org/2000/svg" width="30" height="27" viewBox="0 0 30 27">
    <g fill="none" fill-rule="evenodd">
        <g fill="#FFF" fill-rule="nonzero">
            <g>
                <g>
                    <path d="M341.81 21.002h.126c.233.02 5.48.45 8.27 1.778 1.673-.746 3.5-1.138 5.387-1.138 1.887 0 3.714.392 5.387 1.139 2.79-1.33 8.038-1.76 8.271-1.778.253-.02.502.071.682.25.18.18.271.428.251.68-.005.069-.137 1.687-.472 3.605-.41 2.34-.938 4.067-1.573 5.146.434 1.317.66 2.71.66 4.137 0 3.52-1.374 6.83-3.868 9.319-2.494 2.49-5.81 3.86-9.338 3.86-3.528 0-6.844-1.37-9.338-3.86-2.495-2.49-3.869-5.799-3.869-9.32 0-1.427.226-2.82.661-4.137-.635-1.08-1.163-2.806-1.572-5.146-.336-1.918-.467-3.536-.472-3.603-.02-.253.071-.502.25-.68.12-.12.271-.2.433-.235l.124-.017zm2.313 13.546l-.003.273c0 6.313 5.147 11.45 11.473 11.45 6.182 0 11.237-4.905 11.465-11.02-.88 1.475-2.494 2.463-4.339 2.463-.29 0-.575-.024-.852-.071.091.303.148.622.164.95l.005.198v.397c0 2.116-1.672 3.849-3.767 3.952l-.197.005h-4.958c-2.12 0-3.856-1.67-3.96-3.76l-.004-.197v-.397c0-.383.054-.753.156-1.103-.163.018-.329.026-.496.026-2.125 0-3.943-1.31-4.687-3.166zm13.949 2.016h-4.958c-1.177 0-2.143.914-2.225 2.068l-.006.159v.397c0 1.174.916 2.14 2.072 2.221l.16.006h4.957c1.176 0 2.143-.914 2.225-2.068l.006-.159v-.397c0-1.228-1.001-2.227-2.231-2.227zm-4.834 1.56c.485 0 .845.397.866.866.021.467-.413.865-.866.865-.486 0-.846-.397-.867-.865-.021-.467.413-.865.867-.865zm4.71 0c.486 0 .846.397.867.866.021.467-.413.865-.867.865-.486 0-.845-.397-.866-.865-.021-.467.413-.865.866-.865zm-9.138-8.715c-1.81 0-3.278 1.464-3.278 3.27 0 1.807 1.467 3.272 3.278 3.272 1.81 0 3.278-1.465 3.278-3.271 0-1.807-1.468-3.271-3.278-3.271zm13.91 0c-1.811 0-3.279 1.464-3.279 3.27 0 1.807 1.468 3.272 3.278 3.272s3.278-1.465 3.278-3.271c0-1.807-1.468-3.271-3.278-3.271zm-8.865 3.27c0 .772-.174 1.503-.485 2.156h4.702l.087.002c-.31-.654-.485-1.385-.485-2.157h-3.82zm-5.027-.257c.486 0 .845.396.866.865.021.467-.413.865-.866.865-.486 0-.846-.396-.867-.865-.021-.467.413-.865.867-.865zm13.53 0c.486 0 .846.396.867.865.02.467-.413.865-.867.865-.486 0-.846-.396-.867-.865-.02-.467.414-.865.867-.865zm-6.765-9.05c-3.97 0-7.475 2.022-9.536 5.088.792-.516 1.737-.815 2.753-.815 2.207 0 4.083 1.414 4.767 3.384h4.374c.685-1.97 2.561-3.384 4.768-3.384.783 0 1.525.178 2.187.496-2.085-2.887-5.483-4.77-9.313-4.77zm12.76-.54c-1.313.151-3.62.475-5.405 1.038.705.474 1.369 1.019 1.983 1.632.913.91 1.675 1.932 2.276 3.034.589-1.715.963-4.115 1.146-5.703zm-25.519 0c.183 1.588.557 3.988 1.146 5.702.6-1.1 1.362-2.121 2.275-3.032.614-.613 1.278-1.158 1.984-1.632-1.786-.563-4.092-.887-5.405-1.037z" transform="translate(-463.000000, -998.000000) translate(120.000000, 897.000000) translate(2.000000, 80.000000)"/>
                </g>
            </g>
        </g>
    </g>
</svg>
