<svg width="25" height="34" xmlns="http://www.w3.org/2000/svg">
    <path d="m3.165 0-.19.005a3.165 3.165 0 0 0-2.97 2.963L0 3.16v22.936l.005.19a3.165 3.165 0 0 0 2.963 2.969l.192.005h4.995l.136.068 2.99 3.988.088.102a.941.941 0 0 0 1.337.006l.086-.1 2.997-3.996.136-.068h4.99l.19-.005a3.165 3.165 0 0 0 2.97-2.963l.005-.192V3.165l-.005-.19a3.165 3.165 0 0 0-2.963-2.97L20.92 0H3.165zm9.985 19.64.17.17v4.06l.007.12c.05.432.39.77.815.823l.118.007h2.56l-4.78 6.374-4.78-6.374h2.55l.12-.006a.94.94 0 0 0 .822-.816l.008-.117v-4.07l.17-.17h2.22zm7.77-17.76c.66 0 1.204.5 1.273 1.14l.008.14v22.95l-.009.14a1.282 1.282 0 0 1-1.134 1.123l-.138.008h-3.67l2.197-2.929.066-.098a.942.942 0 0 0-.687-1.405l-.126-.008h-3.33l-.17-.17v-4.06l-.006-.12a.94.94 0 0 0-.816-.823l-.118-.007H9.83l-.12.006a.94.94 0 0 0-.822.816l-.008.117v4.07l-.17.17H5.39l-.119.007a.942.942 0 0 0-.712 1.392l.07.105 2.201 2.937H3.15l-.139-.009a1.282 1.282 0 0 1-1.124-1.134l-.007-.137V3.15l.008-.14c.07-.595.546-1.06 1.134-1.124l.138-.007h17.76zM18.7 13.764H5.39l-.12.006a.94.94 0 0 0-.008 1.866l.118.008h13.31l.12-.007a.94.94 0 0 0 .008-1.866l-.118-.007zM5.39 9.324l-.12.006a.94.94 0 0 0-.008 1.866l.118.008h13.31l.12-.007a.94.94 0 0 0 .008-1.866l-.118-.007H5.39zm11.518-4.44-.12.006a.94.94 0 0 0-.008 1.866l.118.008h1.792l.12-.007a.94.94 0 0 0 .008-1.866l-.118-.007h-1.792zm-11.518 0-.12.006a.94.94 0 0 0-.008 1.866l.118.008h7.068l.12-.007a.94.94 0 0 0 .008-1.866l-.118-.007H5.39z" fill="#F4137B" fill-rule="nonzero"/>
</svg>
