<svg width="56" height="78" xmlns="http://www.w3.org/2000/svg">
    <g fill="none" fill-rule="evenodd">
        <path d="M6.278 46.187C2.356 41.307 0 35.055 0 28.237 0 12.643 12.33 0 27.54 0c15.21 0 27.54 12.642 27.54 28.238 0 6.72-2.29 12.891-6.112 17.74L27.54 77.76 6.278 46.187z" fill="#000"/>
        <path d="M29.362 13.96v10.708H40.12V45.52H16.904V13.96h12.458zm-2.4 2.385H19.3v26.789h18.42V27.053H26.96V16.345zm13.18-2.385v9.016h-9.06V13.96h9.06zm-2.399 2.385h-4.262v4.247h4.262v-4.247z" fill="#FFF"/>
    </g>
</svg>
