<svg xmlns="http://www.w3.org/2000/svg" width="27" height="27" viewBox="0 0 27 27">
    <g fill="none" fill-rule="evenodd">
        <g fill="#FFF">
            <g>
                <g>
                    <g>
                        <path d="M357.291 21c1.745 0 3.164 1.42 3.164 3.164 0 .173-.015.346-.043.516 3.807 1.022 7.133 3.507 9.148 6.98.434.747.435 1.639.004 2.387-.109.188-.24.357-.387.505.546 1.483.823 3.041.823 4.641 0 3.28-1.196 5.877-4.176 7.34C363.188 47.825 359.632 48 356.5 48c-3.132 0-6.689-.174-9.324-1.468-2.98-1.462-4.176-4.06-4.176-7.339 0-1.6.277-3.158.823-4.64-.148-.149-.278-.318-.387-.506-.43-.748-.43-1.64.003-2.386 1.752-3.02 4.494-5.292 7.682-6.506-.104-.316-.158-.649-.158-.991 0-1.745 1.42-3.164 3.164-3.164.56 0 1.105.149 1.583.425.466-.27 1.005-.425 1.581-.425zm-.791 7.91c-3.665 0-7.087 1.954-8.931 5.1-.48.818-1.34 1.308-2.307 1.216-.451 1.27-.68 2.6-.68 3.967 0 2.965 1.108 4.762 3.111 5.823 2.063 1.09 5.075 1.402 8.807 1.402 3.669 0 6.642-.3 8.701-1.348 2.07-1.053 3.217-2.86 3.217-5.877 0-1.366-.23-2.697-.68-3.967-.97.093-1.83-.402-2.307-1.216-1.844-3.146-5.266-5.1-8.931-5.1zm.495 3.5c1.578 0 3.067.888 3.985 2.377.24.391.108.896-.296 1.13-.403.232-.925.104-1.166-.286-.616-1.001-1.536-1.575-2.523-1.575-1.167 0-2.189.798-2.749 1.986h2.38c.469 0 .85.369.85.823 0 .455-.381.824-.85.824h-2.814c-.013.144-.019.29-.019.438 0 .148.006.294.019.438h2.813c.47 0 .85.369.85.823 0 .455-.38.824-.85.824h-2.379c.56 1.188 1.582 1.986 2.749 1.986 1.024 0 1.996-.638 2.601-1.707.226-.399.743-.545 1.155-.326.412.218.563.72.337 1.118-.909 1.604-2.439 2.562-4.093 2.562-1.346 0-2.6-.619-3.53-1.742-.456-.551-.806-1.194-1.039-1.89h-.778c-.47 0-.85-.37-.85-.825 0-.454.38-.823.85-.823h.459c-.01-.145-.015-.291-.015-.438 0-.147.006-.293.015-.438h-.46c-.47 0-.85-.369-.85-.824 0-.454.38-.823.85-.823h.78c.232-.697.582-1.34 1.038-1.89.93-1.124 2.184-1.743 3.53-1.743zm-.495-6.664c-4.811 0-9.291 2.57-11.692 6.709-.21.361-.07.681 0 .802.295.515 1.036.567 1.396-.047 2.127-3.628 6.072-5.882 10.296-5.882 4.224 0 8.17 2.254 10.296 5.882.36.613 1.1.563 1.397.047.07-.12.209-.441 0-.802-2.402-4.138-6.882-6.709-11.693-6.709zm-2.373-3.164c-.872 0-1.582.71-1.582 1.582 0 .175.028.345.082.506.494-.131.997-.238 1.506-.318-.036-.611.102-1.2.39-1.72-.128-.032-.261-.05-.396-.05zm3.164 0c-.872 0-1.582.71-1.582 1.582v.021c.263-.014.527-.021.791-.021.798 0 1.587.064 2.362.187.11-.952-.634-1.769-1.571-1.769z" transform="translate(-873.000000, -998.000000) translate(120.000000, 897.000000) translate(2.000000, 80.000000) translate(408.000000, 0.000000)"/>
                    </g>
                </g>
            </g>
        </g>
    </g>
</svg>
