<svg width="57" height="78" xmlns="http://www.w3.org/2000/svg">
    <g fill="none" fill-rule="evenodd">
        <path d="M28.08 0c15.508 0 28.08 12.572 28.08 28.08 0 5.567-1.62 10.756-4.415 15.12h.095L28.066 77.76 4.32 43.2h.095A27.949 27.949 0 0 1 0 28.08C0 12.572 12.572 0 28.08 0z" fill="#FFC000"/>
        <path d="M22.485 27.213v2.928a8.588 8.588 0 0 1 6.462-2.928c4.101 0 7.534 2.878 8.392 6.727a10.71 10.71 0 0 0 2.36-6.727l-.001.006v.007h6.45c0 9.503-7.711 17.214-17.214 17.214-9.503 0-17.214-7.71-17.214-17.227h10.765zm21.366 2.159h-2.183c-1.023 6.095-6.336 10.752-12.734 10.752a4.293 4.293 0 0 1-4.304-4.304 4.3 4.3 0 0 1 4.304-4.303c2.372 0 4.303 1.868 4.303 4.303 0 .48-.1.922-.24 1.35a10.618 10.618 0 0 0 2.386-1.362 6.442 6.442 0 0 0-6.45-6.436 6.447 6.447 0 0 0-6.46 6.448 6.466 6.466 0 0 0 6.46 6.462c7.586 0 13.883-5.616 14.918-12.91zm-23.524 0h-6.285a15.095 15.095 0 0 0 7.61 11.042 8.638 8.638 0 0 1-1.325-4.58v-6.462zm8.62 4.303c-1.187 0-2.146.96-2.146 2.145 0 1.187.96 2.146 2.146 2.146s2.145-.96 2.145-2.146-.96-2.145-2.145-2.145zm6.448-10.222v2.158h-12.91v-2.158h12.91zm-1.085-8.065a4.311 4.311 0 0 1 4.316 4.304v2.17h-2.158v-2.158a2.157 2.157 0 0 0-2.158-2.158c-.19 0-.379.026-.555.076a4.26 4.26 0 0 1 .555 2.07v2.158h-2.107v-2.158a2.157 2.157 0 0 0-2.159-2.158v4.303h-2.158v-4.303a2.157 2.157 0 0 0-2.158 2.158v2.145H23.57V19.68c0-.757.215-1.451.556-2.07a2.677 2.677 0 0 0-.556-.075 2.157 2.157 0 0 0-2.158 2.158v2.158h-2.158v-2.158a4.309 4.309 0 0 1 4.304-4.304 4.32 4.32 0 0 1 2.158.594c.643-.366 1.363-.594 2.145-.594.366 0 .707.064 1.048.152.353-.101.719-.152 1.098-.152.782 0 1.514.228 2.145.594a4.357 4.357 0 0 1 2.158-.594zM29.4 11.88v1.01h1.023v.946h-1.022v1.01h-.934v-1.01h-1.01v-.946h1.01v-1.01h.934z" fill="#FFF" fill-rule="nonzero"/>
    </g>
</svg>
