<svg xmlns="http://www.w3.org/2000/svg" width="42" height="34" viewBox="0 0 42 34">
    <g fill="none" fill-rule="evenodd">
        <g fill="#000" fill-rule="nonzero">
            <g>
                <g>
                    <path d="M43.61 36.614c.61 0 1.106-.491 1.106-1.096 0-.602-.496-1.092-1.106-1.092-.61 0-1.107.49-1.107 1.092 0 .605.496 1.096 1.107 1.096zm4.304 5.56c0 1.895-1.6 3.438-3.568 3.438-1.966 0-3.565-1.543-3.565-3.438V27.86h7.133v14.314zm4.05-23.31h-3.958v6.704h-7.251v-6.705h-3.531c-.616 0-1.117.476-1.117 1.06 0 .584.501 1.059 1.117 1.059h1.296v21.216c0 3.09 2.629 5.602 5.86 5.602 3.23 0 5.86-2.513 5.86-5.602V20.982h1.724c.615 0 1.116-.475 1.116-1.058 0-.585-.501-1.06-1.116-1.06zm-6.878 13.86c.61 0 1.106-.491 1.106-1.095 0-.603-.496-1.094-1.106-1.094-.61 0-1.108.491-1.108 1.094 0 .604.497 1.095 1.108 1.095zm-14.883 8.145c0 .604.497 1.095 1.107 1.095s1.107-.491 1.107-1.095c0-.603-.497-1.093-1.107-1.093s-1.107.49-1.107 1.093zm-3.444-2.432c0 .604.497 1.095 1.106 1.095.611 0 1.108-.49 1.108-1.095 0-.602-.497-1.093-1.108-1.093-.61 0-1.106.49-1.106 1.093zm10.454 7.258h-21.76c-.46 0-.865-.232-1.086-.62-.222-.399-.203-.858.049-1.232l6.138-9.11h13.764l.56.879c.201.318.554.507.946.507.206 0 .406-.054.579-.156.254-.15.431-.382.498-.657.066-.269.02-.546-.131-.782l-4.674-7.35-.057-11.071h1.455c.61 0 1.107-.472 1.107-1.053 0-.579-.497-1.05-1.107-1.05h-3.679l.072 13.765 3.093 4.865H21.968l3.269-4.854V14h-3.503c-.61 0-1.108.471-1.108 1.05 0 .581.497 1.053 1.108 1.053h1.292v11.059L12.552 42.709c-.684 1.012-.736 2.3-.134 3.36.604 1.068 1.766 1.731 3.034 1.731h21.761c.61 0 1.108-.472 1.108-1.052 0-.58-.497-1.053-1.108-1.053z" transform="translate(-787.000000, -3223.000000) translate(0.000000, 3143.000000) translate(775.000000, 66.000000)"/>
                </g>
            </g>
        </g>
    </g>
</svg>
