<svg xmlns="http://www.w3.org/2000/svg" width="33" height="24" viewBox="0 0 33 24">
    <g fill="none" fill-rule="evenodd">
        <g fill="#FFF">
            <g>
                <g>
                    <g>
                        <path d="M357.15 26.957c1.35 0 2.531 1.198 2.531 2.569v14.106c0 1.369-1.18 2.568-2.53 2.568h-23.62c-1.35 0-2.531-1.2-2.531-2.568V29.526c0-1.37 1.181-2.569 2.53-2.569zm.844 8.02h-25.307v8.655c0 .513.338.855.843.855h23.62c.507 0 .844-.342.844-.855v-8.656zM359.167 23c2.473 0 4.487 2.013 4.487 4.489v13.825c0 .468-.38.848-.847.848-.468 0-.848-.38-.848-.848V27.49c0-1.541-1.252-2.794-2.792-2.794h-22.446c-.468 0-.847-.38-.847-.848 0-.468.38-.847.847-.847zm-2.016 5.67h-23.62c-.506 0-.844.342-.844.856v2.517h25.307v-2.517c0-.514-.337-.857-.843-.857z" transform="translate(-1269.000000, -1000.000000) translate(120.000000, 897.000000) translate(2.000000, 80.000000) translate(816.000000, 0.000000)"/>
                    </g>
                </g>
            </g>
        </g>
    </g>
</svg>
