<?xml version="1.0" encoding="UTF-8"?>
<svg width="24px" height="24px" viewBox="0 0 24 24" version="1.1" xmlns="http://www.w3.org/2000/svg" xmlns:xlink="http://www.w3.org/1999/xlink">
    <title>ic_banco</title>
    <g id="ic_banco"  stroke-width="1" fill="none" fill-rule="evenodd">
        <path d="M19.5058667,9.97259812 C20.3295907,9.97259812 21,9.3023947 21,8.4784612 C21,7.28962626 21,7.51009446 20.999668,7.47784601 C20.9980493,7.2933616 20.8929619,7.12116232 20.7245399,7.0368681 L12.7558288,3.05250298 C12.6162519,2.98277659 12.4518557,2.98244456 12.3119467,3.05183892 L4.2767467,7.03620403 C4.27429798,7.03736614 4.27205678,7.03881877 4.26960806,7.04010539 C4.10570993,7.12506368 4.00195067,7.29269754 4,7.47751398 C4,7.47913262 4,7.48075127 4,7.48236992 L4,8.4784612 C4,9.3023947 4.67020181,9.97259812 5.49413333,9.97259812 L5.99217777,9.97259812 L5.99217777,15.1051244 C5.41241254,15.3106928 4.99608889,15.8643535 4.99608889,16.5136805 L4.99608889,17.097307 C4.41632365,17.3028753 4,17.8565361 4,18.5058631 L4,19.5019544 C4,19.7769171 4.22291639,20 4.49804444,20 L20.5019556,20 C20.7769176,20 21,19.7769171 21,19.5019544 L21,18.5058631 C21,17.8565361 20.5834688,17.3028753 20.0039111,17.097307 L20.0039111,16.5136805 C20.0039111,15.8643535 19.5873799,15.3106928 19.0078222,15.1051244 L19.0078222,9.97259812 L19.5058667,9.97259812 Z M12.5322484,4.05440479 L18.3920733,6.98432428 L6.62349061,6.98432428 L12.5322484,4.05440479 Z M5.99217777,16.5136805 C5.99217777,16.2390499 6.21559221,16.0156349 6.49022222,16.0156349 L18.5097778,16.0156349 C18.7842418,16.0156349 19.0078222,16.2390499 19.0078222,16.5136805 L19.0078222,17.0117262 L5.99217777,17.0117262 L5.99217777,16.5136805 Z M6.98826666,15.0195436 L7.98435555,15.0195436 L7.98435555,9.97259812 L6.98826666,9.97259812 L6.98826666,15.0195436 Z M8.98044443,15.0195436 L11.0391111,15.0195436 L11.0391111,9.97259812 L8.98044443,9.97259812 L8.98044443,15.0195436 Z M12.0352,15.0195436 L13.0312889,15.0195436 L13.0312889,9.97259812 L12.0352,9.97259812 L12.0352,15.0195436 Z M14.0273778,15.0195436 L16.0195556,15.0195436 L16.0195556,9.97259812 L14.0273778,9.97259812 L14.0273778,15.0195436 Z M17.0156445,15.0195436 L18.0117333,15.0195436 L18.0117333,9.97259812 L17.0156445,9.97259812 L17.0156445,15.0195436 Z M19.5058667,18.0078174 C19.7803307,18.0078174 20.0039111,18.2312324 20.0039111,18.5058631 L20.0039111,19.0039087 L4.99608889,19.0039087 L4.99608889,18.5058631 C4.99608889,18.2312324 5.21950332,18.0078174 5.49413333,18.0078174 L19.5058667,18.0078174 Z M5.49413333,8.97650684 C5.21950332,8.97650684 4.99608889,8.75309187 4.99608889,8.4784612 L4.99608889,7.98041556 L20.0039111,7.98041556 L20.0039111,8.4784612 C20.0039111,8.75309187 19.7803307,8.97650684 19.5058667,8.97650684 L5.49413333,8.97650684 Z" fill="#F4137B"></path>
    </g>
</svg>
