<?xml version="1.0" encoding="UTF-8"?>
<svg width="24px" height="24px" viewBox="0 0 24 24" version="1.1" xmlns="http://www.w3.org/2000/svg" xmlns:xlink="http://www.w3.org/1999/xlink">
    <title>ic_cronometro_euro</title>
    <g id="ic_cronometro_euro"  stroke-width="1" fill="none" fill-rule="evenodd">
        <path d="M13.3076331,4.1454797 L13.3076331,5.92428937 C17.5437122,6.19912431 20.8947368,9.6869685 20.8947368,13.9526991 C20.8947368,18.3969811 17.2566924,22 12.7692788,22 C8.65625213,22 5.26031335,18.9731594 4.72134381,15.0462497 L4.72134381,15.0462497 L3.9347313,15.8951301 C3.82890623,16.0096954 3.68370439,16.0678922 3.53819492,16.0678922 C3.408067,16.0678922 3.27732382,16.0215785 3.17426743,15.9274277 C2.95523415,15.7284619 2.94077549,15.3911645 3.14165854,15.1742216 L3.14165854,15.1742216 L4.83670544,13.3448325 C4.91515135,13.260432 5.0148238,13.2077198 5.12003361,13.1851723 C5.2886154,13.1449526 5.47350164,13.1857817 5.61070508,13.310402 L5.61070508,13.310402 L7.45802933,14.9886623 C7.67737024,15.1876282 7.69213653,15.5249256 7.49125348,15.7421731 C7.38481315,15.8567385 7.23961131,15.9149352 7.09440947,15.9149352 C6.96428155,15.9149352 6.833846,15.8683169 6.73048197,15.7744708 L6.73048197,15.7744708 L5.79005396,14.9198012 C6.26688203,18.3128852 9.21367954,20.9335673 12.7692788,20.9335673 C16.6561967,20.9335673 19.8180283,17.8019117 19.8180283,13.9526991 C19.8180283,10.1031819 16.6561967,6.97122155 12.7692788,6.97122155 C9.63144246,6.97122155 6.9667426,9.01298306 6.05615479,11.8253183 L6.05615479,11.8253183 L4.93237869,11.8253183 C5.8291231,8.57818323 8.72669964,6.15494352 12.2309245,5.92733633 L12.2309245,5.92733633 L12.2309245,4.1454797 L13.3076331,4.1454797 Z M13.2796079,9.91683044 C14.0680662,9.91683044 14.8282224,10.1483987 15.4785544,10.5865502 C15.6677475,10.7142174 15.7166608,10.9692471 15.5880711,11.1566346 C15.4594813,11.344022 15.2016865,11.3927732 15.0124934,11.265106 C14.5002878,10.9198865 13.9010226,10.7373742 13.2796079,10.7373742 C11.9983247,10.7373742 10.8973133,11.5164794 10.4330981,12.6213037 L10.4330981,12.6213037 L13.4085053,12.6213037 C13.6373828,12.6213037 13.8228843,12.8050348 13.8228843,13.0317279 C13.8228843,13.2581163 13.6373828,13.4418474 13.4085053,13.4418474 L13.4085053,13.4418474 L10.2183717,13.4418474 C10.2054512,13.5567175 10.1968375,13.673111 10.1968375,13.7913326 C10.1968375,13.909859 10.2054512,14.0262525 10.2183717,14.1411226 L10.2183717,14.1411226 L12.7107982,14.1411226 C12.9396756,14.1411226 13.1251771,14.3248537 13.1251771,14.5515468 C13.1251771,14.7779352 12.9396756,14.9616663 12.7107982,14.9616663 L12.7107982,14.9616663 L10.4330981,14.9616663 C10.897621,16.0664906 11.9983247,16.8455958 13.2796079,16.8455958 C13.9004073,16.8455958 14.4996725,16.6630835 15.0124934,16.3175593 C15.2023018,16.189892 15.4594813,16.2389479 15.5880711,16.4263354 C15.7166608,16.6137229 15.6677475,16.8687526 15.4785544,16.9961151 C14.8276072,17.4345713 14.0671433,17.6661395 13.2796079,17.6661395 C11.5344172,17.6661395 10.0537891,16.5277989 9.55142763,14.9616663 L9.55142763,14.9616663 L8.52486293,14.9616663 C8.29598545,14.9616663 8.11079158,14.7779352 8.11079158,14.5515468 C8.11079158,14.3248537 8.29598545,14.1411226 8.52486293,14.1411226 L8.52486293,14.1411226 L9.38592214,14.1411226 C9.37577032,14.0256431 9.36807954,13.9095543 9.36807954,13.7913326 C9.36807954,13.6734157 9.37577032,13.5573268 9.38592214,13.4418474 L9.38592214,13.4418474 L8.52486293,13.4418474 C8.29598545,13.4418474 8.11079158,13.2581163 8.11079158,13.0317279 C8.11079158,12.8050348 8.29598545,12.6213037 8.52486293,12.6213037 L8.52486293,12.6213037 L9.55142763,12.6213037 C10.0537891,11.0551711 11.5344172,9.91683044 13.2796079,9.91683044 Z M18.370409,5.38628933 C19.1988593,5.92102914 19.9396348,6.56850611 20.5742776,7.31257141 L19.7378289,8.00301039 C19.1742489,7.34334561 18.5174566,6.76899545 17.7843719,6.29458526 L18.370409,5.38628933 Z M14.02186,2 C14.997358,2 15.7907384,2.78611322 15.7907384,3.75199651 L15.7907384,3.75199651 L15.7907384,5.00459785 L14.7140298,5.00459785 L14.7140298,3.75199651 C14.7140298,3.37386996 14.4033225,3.06643266 14.02186,3.06643266 L14.02186,3.06643266 L11.516513,3.06643266 C11.1350506,3.06643266 10.8243432,3.37386996 10.8243432,3.75199651 L10.8243432,3.75199651 L10.8243432,5.00459785 L9.74763469,5.00459785 L9.74763469,3.75199651 C9.74763469,2.78611322 10.5410151,2 11.516513,2 L11.516513,2 Z" fill="#F4137B"></path>
    </g>
</svg>
