<?xml version="1.0" encoding="UTF-8"?>
<svg width="24px" height="24px" viewBox="0 0 24 24" version="1.1" xmlns="http://www.w3.org/2000/svg" xmlns:xlink="http://www.w3.org/1999/xlink">
    <title>ic_grafico_4_bolas</title>
    <g id="ic_grafico_4_bolas"  stroke-width="1" fill="none" fill-rule="evenodd">
        <path d="M7.3277721,12.624989 C7.4556371,12.320752 7.80574229,12.1775515 8.11016509,12.3049735 C8.41440211,12.4328385 8.55760262,12.7829437 8.43018057,13.0873665 L8.43018057,13.0873665 L6.92221977,16.6817086 C7.85038273,17.4162085 8.11111262,18.7142765 7.53855888,19.7502103 C6.96600514,20.786144 5.72817354,21.2559671 4.61245008,20.8608244 C3.49672662,20.4656818 2.83050061,19.3215211 3.03755912,18.1561442 C3.24461764,16.9907673 4.26420302,16.1461335 5.44775592,16.1595151 C5.5753774,16.1622156 5.70258474,16.1750163 5.82818554,16.1977973 L5.82818554,16.1977973 Z M5.44775592,17.3558347 C4.78704687,17.3558347 4.25143637,17.8914452 4.25143637,18.5521542 C4.25143637,19.2128633 4.78704687,19.7484738 5.44775592,19.7484738 C6.10846497,19.7484738 6.64407548,19.2128633 6.64407548,18.5521542 C6.64407548,17.8914452 6.10846497,17.3558347 5.44775592,17.3558347 Z M16.5651535,8.62330007 C16.6840717,8.31539272 17.0299257,8.162007 17.337976,8.28055452 C17.6458833,8.39947269 17.7992691,8.74532671 17.6807215,9.05337695 L17.6807215,9.05337695 L15.892822,13.6903115 C16.847545,14.4412996 17.0943572,15.7853277 16.4687437,16.8265227 C15.8431302,17.8677177 14.5405524,18.2807776 13.4292542,17.7903741 C12.317956,17.2999705 11.7451419,16.0593209 12.0926259,14.8953904 C12.4401098,13.7314599 13.5993269,13.007897 14.7975914,13.2069984 L14.7975914,13.2069984 Z M14.4201526,14.3650358 C13.7594435,14.3650358 13.223833,14.9006463 13.223833,15.5613553 C13.223833,16.2220644 13.7594435,16.7576749 14.4201526,16.7576749 C15.0808616,16.7576749 15.6164721,16.2220644 15.6164721,15.5613553 C15.6164721,14.9006463 15.0808616,14.3650358 14.4201526,14.3650358 Z M9.63487437,7.18711844 C10.9562925,7.18711844 12.0275135,8.25833946 12.0275135,9.57975755 C12.0263354,10.0989095 11.8546334,10.6032972 11.5388169,11.015341 L11.5388169,11.015341 L12.4922836,12.1949121 C12.6368888,12.3741055 12.6657969,12.6203943 12.5666159,12.828202 C12.467435,13.0360097 12.257776,13.168437 12.0275135,13.1687162 C11.8469457,13.168497 11.6761399,13.0867213 11.5627433,12.9462008 L11.5627433,12.9462008 L10.6056877,11.7618444 C10.3006604,11.900032 9.96974312,11.9718022 9.63487437,11.9723967 C8.31345627,11.9723967 7.24223525,10.9011756 7.24223525,9.57975755 C7.24223525,8.25833946 8.31345627,7.18711844 9.63487437,7.18711844 Z M9.63487437,8.383438 C8.97416532,8.383438 8.43855481,8.91904851 8.43855481,9.57975755 C8.43855481,10.2404666 8.97416532,10.7760771 9.63487437,10.7760771 C10.2955834,10.7760771 10.8311939,10.2404666 10.8311939,9.57975755 C10.8311939,8.91904851 10.2955834,8.383438 9.63487437,8.383438 Z M18.607271,3 C19.9286891,3 20.9999101,4.07122102 20.9999101,5.39263911 C20.9999101,6.7140572 19.9286891,7.78527822 18.607271,7.78527822 C17.2858529,7.78527822 16.2146319,6.7140572 16.2146319,5.39263911 C16.2146319,4.07122102 17.2858529,3 18.607271,3 Z M18.607271,4.19631956 C17.946562,4.19631956 17.4109515,4.73193006 17.4109515,5.39263911 C17.4109515,6.05334816 17.946562,6.58895867 18.607271,6.58895867 C19.2679801,6.58895867 19.8035906,6.05334816 19.8035906,5.39263911 C19.8035906,4.73193006 19.2679801,4.19631956 18.607271,4.19631956 Z" fill="#F4137B" fill-rule="nonzero"></path>
    </g>
</svg>
