<?xml version="1.0" encoding="UTF-8"?>
<svg width="24px" height="24px" viewBox="0 0 24 24" version="1.1" xmlns="http://www.w3.org/2000/svg" xmlns:xlink="http://www.w3.org/1999/xlink">
    <!-- Generator: Sketch 54.1 (76490) - https://sketchapp.com -->
    <title>ic_microfono</title>
    <desc>Created with Sketch.</desc>
    <g id="ic_microfono" stroke="none" stroke-width="1" fill="none" fill-rule="evenodd">
        <path d="M9.02529147,7.32959344 L9.02529147,11.3552888 C9.02529147,13.0809248 10.3927464,14.4849217 12.0737733,14.4849217 C13.7546849,14.4849217 15.1222935,13.0809248 15.1222935,11.3552888 L15.1222935,7.32959344 C15.1222935,5.60399684 13.7546849,4.2 12.0737733,4.2 C10.3927464,4.2 9.02529147,5.60399684 9.02529147,7.32959344 Z M14.0681416,7.32959344 L14.0681416,11.3552888 C14.0681416,12.4846146 13.1739833,13.4027217 12.0737733,13.4027217 C10.9736017,13.4027217 10.0792513,12.4846146 10.0792513,11.3552888 L10.0792513,7.32959344 C10.0792513,6.20014932 10.9736017,5.28216048 12.0737733,5.28216048 C13.1739833,5.28216048 14.0681416,6.20014932 14.0681416,7.32959344 Z M16.6127878,10.8158451 C16.9046176,10.8158451 17.1412467,11.0587703 17.1321042,11.3552888 C17.1321042,14.0400453 15.1407321,16.2579991 12.593128,16.5292786 L12.593128,18.5830213 L14.3540172,18.5830213 C14.6460006,18.5830213 14.8826297,18.8259465 14.8826297,19.1256987 C14.8826297,19.4222567 14.6460006,19.6651818 14.3540172,19.6651818 L9.77812538,19.6651818 C9.48625723,19.6651818 9.24962814,19.4253327 9.24962814,19.1256987 C9.24962814,18.8259465 9.48625723,18.5830213 9.77812538,18.5830213 L11.5389762,18.5830213 L11.5389762,16.5292786 C8.99137207,16.2579991 7,14.0400453 7,11.3552888 C7,11.0587703 7.23662909,10.8158451 7.5286509,10.8158451 C7.8206727,10.8158451 8.05730179,11.0555365 8.05730179,11.3552888 C8.05730179,13.6267176 9.85810294,15.4755909 12.0706233,15.4755909 C14.2833358,15.4755909 16.0841369,13.6267176 16.0841369,11.3552888 C16.0841369,11.0587703 16.320766,10.8158451 16.6127878,10.8158451 Z" fill="#FFFFFF"></path>
    </g>
</svg>