<?xml version="1.0" encoding="UTF-8"?>
<svg width="24px" height="24px" viewBox="0 0 24 24" version="1.1" xmlns="http://www.w3.org/2000/svg" xmlns:xlink="http://www.w3.org/1999/xlink">
    <title>ic_maleta</title>
    <g id="ic_maleta" stroke-width="1" fill="none"  fill-rule="evenodd">
        <path d="M19.0078125,6.72727273 L15.8203125,6.72727273 L15.8203125,6.04545455 C15.8203125,4.91759091 14.9266172,4 13.828125,4 L11.171875,4 C10.0733828,4 9.1796875,4.91759091 9.1796875,6.04545455 L9.1796875,6.72727273 L5.9921875,6.72727273 C4.89369531,6.72727273 4,7.64486364 4,8.77272727 L4,16.9545455 C4,18.0824091 4.89369531,19 5.9921875,19 L19.0078125,19 C20.1063047,19 21,18.0824091 21,16.9545455 L21,8.77272727 C21,7.64486364 20.1063047,6.72727273 19.0078125,6.72727273 Z M10.5078125,6.04545455 C10.5078125,5.6695 10.8057109,5.36363636 11.171875,5.36363636 L13.828125,5.36363636 C14.1942891,5.36363636 14.4921875,5.6695 14.4921875,6.04545455 L14.4921875,6.72727273 L10.5078125,6.72727273 L10.5078125,6.04545455 Z M6.5234375,17.6363636 L5.9921875,17.6363636 C5.62602344,17.6363636 5.328125,17.3305 5.328125,16.9545455 L5.328125,8.77272727 C5.328125,8.39677273 5.62602344,8.09090909 5.9921875,8.09090909 L6.5234375,8.09090909 L6.5234375,17.6363636 Z M17.1484375,17.6363636 L7.8515625,17.6363636 L7.8515625,8.09090909 L17.1484375,8.09090909 L17.1484375,17.6363636 Z M19.671875,16.9545455 C19.671875,17.3305 19.3739766,17.6363636 19.0078125,17.6363636 L18.4765625,17.6363636 L18.4765625,8.09090909 L19.0078125,8.09090909 C19.3739766,8.09090909 19.671875,8.39677273 19.671875,8.77272727 L19.671875,16.9545455 Z M11.8359375,16.2727273 L15.8203125,16.2727273 L15.8203125,14.9090909 L11.8359375,14.9090909 L11.8359375,16.2727273 Z M11.171875,13.5454545 C12.2703672,13.5454545 13.1640625,12.6278636 13.1640625,11.5 C13.1640625,10.3721364 12.2703672,9.45454545 11.171875,9.45454545 C10.0733828,9.45454545 9.1796875,10.3721364 9.1796875,11.5 C9.1796875,12.6278636 10.0733828,13.5454545 11.171875,13.5454545 Z M11.171875,10.8181818 C11.5380391,10.8181818 11.8359375,11.1240455 11.8359375,11.5 C11.8359375,11.8759545 11.5380391,12.1818182 11.171875,12.1818182 C10.8057109,12.1818182 10.5078125,11.8759545 10.5078125,11.5 C10.5078125,11.1240455 10.8057109,10.8181818 11.171875,10.8181818 Z" fill="#F4137B" fill-rule="nonzero"></path>
    </g>
</svg>
