<?xml version="1.0" encoding="utf-8"?>
<!-- Generator: Adobe Illustrator 21.0.2, SVG Export Plug-In . SVG Version: 6.00 Build 0)  -->
<svg version="1.1" id="Capa_1" xmlns="http://www.w3.org/2000/svg" xmlns:xlink="http://www.w3.org/1999/xlink" x="0px" y="0px"
	 viewBox="0 0 362.967 138.821" enable-background="new 0 0 362.967 138.821" xml:space="preserve">
<g>
	<path fill="#2E2A25" d="M53.281,2.978H0v135.622h99.294V48.994H53.281V2.978z M87.185,61.101v65.391H12.107V15.09H41.17v46.011
		H87.185z"/>
	<path fill="#2E2A25" d="M60.545,41.726h38.749V2.979H60.545V41.726z M87.185,29.619h-14.53v-14.53h14.53V29.619z"/>
	<g>
		<g>
			<polygon fill="#2E2A25" points="135.207,20.833 135.207,34.565 169.543,34.565 169.543,52.663 135.207,52.663 135.207,66.833 
				177.994,66.833 177.994,84.936 113.838,84.936 113.838,2.734 177.994,2.734 177.994,20.833 			"/>
			<polygon fill="#2E2A25" points="229.515,52.664 249.469,2.733 272.686,2.733 237.588,84.934 221.011,84.934 186.455,2.733 
				209.68,2.733 			"/>
			<path fill="#2E2A25" d="M317.511,0c-25.106,0-45.456,19.624-45.456,43.828c0,24.207,20.35,43.828,45.456,43.828
				c25.104,0,45.456-19.62,45.456-43.828C362.967,19.624,342.615,0,317.511,0 M317.511,66.944c-12.824,0-23.219-10.35-23.219-23.116
				c0-12.764,10.395-23.114,23.219-23.114c12.824,0,23.219,10.35,23.219,23.114C340.73,56.594,330.335,66.944,317.511,66.944"/>
		</g>
		<g>
			<g>
				<path fill="#2E2A25" d="M127.028,94.278v4.145h-8.439v2.883h7.719v4.054h-7.719v3.184h8.439v4.175h-13.185V94.278H127.028z"/>
				<path fill="#2E2A25" d="M134.024,112.719h-4.715V93.197h4.715V112.719z"/>
				<path fill="#2E2A25" d="M147.297,112.719h-4.715V93.197h4.715v7.088c0.63-0.721,1.952-1.382,3.333-1.382
					c3.904,0,6.037,3.153,6.037,7.058s-2.133,7.058-6.037,7.058c-1.381,0-2.703-0.661-3.333-1.382V112.719z M147.297,107.733
					c0.36,0.751,1.141,1.262,2.072,1.262c1.622,0,2.583-1.292,2.583-3.034s-0.961-3.064-2.583-3.064
					c-0.901,0-1.712,0.541-2.072,1.262V107.733z"/>
				<path fill="#2E2A25" d="M166.005,112.719v-0.691c-0.451,0.451-1.802,0.931-3.244,0.931c-2.673,0-4.926-1.501-4.926-4.355
					c0-2.613,2.253-4.295,5.196-4.295c1.111,0,2.432,0.361,2.973,0.751v-0.871c0-0.871-0.511-1.622-1.652-1.622
					c-0.872,0-1.382,0.39-1.592,0.991h-4.445c0.39-2.613,2.703-4.685,6.187-4.685c3.844,0,6.037,2.042,6.037,5.556v8.289H166.005z
					 M166.005,108.154c-0.301-0.57-1.111-0.931-1.982-0.931c-0.931,0-1.862,0.391-1.862,1.292c0,0.931,0.931,1.321,1.862,1.321
					c0.871,0,1.682-0.36,1.982-0.901V108.154z"/>
				<path fill="#2E2A25" d="M172.85,99.204h4.715v1.171c0.751-0.841,2.072-1.472,3.634-1.472c3.003,0,4.775,1.952,4.775,4.955v8.86
					h-4.685V105c0-1.111-0.57-1.922-1.772-1.922c-0.931,0-1.712,0.541-1.952,1.472v8.169h-4.715V99.204z"/>
				<path fill="#2E2A25" d="M194.532,98.903c3.635,0,5.887,2.162,6.277,5.316h-4.565c-0.12-0.811-0.751-1.412-1.713-1.412
					c-1.321,0-2.162,1.231-2.162,3.153s0.841,3.124,2.162,3.124c0.961,0,1.592-0.571,1.713-1.382h4.565
					c-0.391,3.124-2.643,5.316-6.277,5.316c-4.054,0-6.818-2.883-6.818-7.058S190.478,98.903,194.532,98.903z"/>
				<path fill="#2E2A25" d="M208.856,113.019c-4.085,0-6.908-2.883-6.908-7.058s2.823-7.058,6.908-7.058
					c4.115,0,6.908,2.883,6.908,7.058S212.971,113.019,208.856,113.019z M208.856,102.778c-1.441,0-2.252,1.321-2.252,3.183
					s0.811,3.153,2.252,3.153c1.472,0,2.283-1.291,2.283-3.153S210.328,102.778,208.856,102.778z"/>
				<path fill="#2E2A25" d="M231.709,112.719h-4.685V99.504l-4.294,2.072v-4.565l5.736-2.733h3.243V112.719z"/>
				<path fill="#2E2A25" d="M234.11,103.498c0-5.616,3.094-9.521,7.629-9.521c4.536,0,7.659,3.904,7.659,9.521
					c0,5.616-3.123,9.521-7.659,9.521C237.204,113.019,234.11,109.115,234.11,103.498z M238.765,103.498
					c0,2.853,0.842,5.286,2.973,5.286c2.133,0,2.973-2.433,2.973-5.286c0-2.853-0.841-5.286-2.973-5.286
					C239.607,98.213,238.765,100.645,238.765,103.498z"/>
				<path fill="#2E2A25" d="M250.896,103.498c0-5.616,3.094-9.521,7.629-9.521c4.536,0,7.659,3.904,7.659,9.521
					c0,5.616-3.123,9.521-7.659,9.521C253.99,113.019,250.896,109.115,250.896,103.498z M255.551,103.498
					c0,2.853,0.842,5.286,2.973,5.286c2.133,0,2.973-2.433,2.973-5.286c0-2.853-0.841-5.286-2.973-5.286
					C256.393,98.213,255.551,100.645,255.551,103.498z"/>
				<path fill="#2E2A25" d="M272.008,102.778c-2.433,0-4.355-1.922-4.355-4.355c0-2.463,1.922-4.445,4.355-4.445
					c2.462,0,4.445,1.982,4.445,4.445C276.452,100.856,274.47,102.778,272.008,102.778z M281.709,94.278h2.703l-11.834,18.441
					h-2.703L281.709,94.278z M272.008,99.985c0.901,0,1.652-0.691,1.652-1.562c0-0.901-0.751-1.652-1.652-1.652
					c-0.841,0-1.562,0.751-1.562,1.652C270.445,99.294,271.167,99.985,272.008,99.985z M282.279,113.019
					c-2.462,0-4.445-1.982-4.445-4.445c0-2.433,1.982-4.355,4.445-4.355c2.432,0,4.385,1.922,4.385,4.355
					C286.664,111.037,284.711,113.019,282.279,113.019z M282.279,107.013c-0.901,0-1.652,0.691-1.652,1.562
					c0,0.901,0.751,1.652,1.652,1.652c0.871,0,1.561-0.751,1.561-1.652C283.841,107.703,283.15,107.013,282.279,107.013z"/>
				<path fill="#2E2A25" d="M302.273,111.746c-0.567,0.648-1.756,1.243-2.999,1.243c-3.512,0-5.429-2.837-5.429-6.348
					c0-3.512,1.918-6.349,5.429-6.349c1.243,0,2.432,0.594,2.999,1.243v-6.376h4.241v17.56h-4.241V111.746z M302.273,105.02
					c-0.325-0.648-1.054-1.135-1.864-1.135c-1.459,0-2.324,1.189-2.324,2.756c0,1.567,0.864,2.728,2.324,2.728
					c0.837,0,1.539-0.459,1.864-1.135V105.02z"/>
				<path fill="#2E2A25" d="M310.916,99.536c-1.297,0-2.405-0.891-2.405-2.269c0-1.405,1.108-2.296,2.405-2.296
					c1.297,0,2.405,0.891,2.405,2.296C313.321,98.644,312.213,99.536,310.916,99.536z M313.023,112.719h-4.241v-12.157h4.241
					V112.719z"/>
				<path fill="#2E2A25" d="M322.937,111.017c-0.54,0.622-1.54,1.189-2.89,1.189c-3.404,0-5.377-2.62-5.377-5.97
					c0-3.323,1.972-5.943,5.377-5.943c1.35,0,2.35,0.54,2.89,1.189v-0.919h4.187v10.401c0,4.268-2.62,6.321-6.321,6.321
					c-3.242,0-5.565-1.594-5.998-4.403h4.08c0.243,0.864,0.891,1.297,1.918,1.297c1.324,0,2.134-0.702,2.134-2.296V111.017z
					 M322.937,104.669c-0.324-0.54-1-1.027-1.837-1.027c-1.405,0-2.242,1.081-2.242,2.593c0,1.54,0.837,2.593,2.242,2.593
					c0.837,0,1.513-0.459,1.837-1.027V104.669z"/>
				<path fill="#2E2A25" d="M331.527,99.536c-1.297,0-2.404-0.891-2.404-2.269c0-1.405,1.108-2.296,2.404-2.296
					c1.297,0,2.404,0.891,2.404,2.296C333.931,98.644,332.824,99.536,331.527,99.536z M333.634,112.719h-4.242v-12.157h4.242
					V112.719z"/>
				<path fill="#2E2A25" d="M336.821,103.858h-1.783v-3.296h1.783v-3.35h4.188v3.35h2.539v3.296h-2.539v4.052
					c0,0.945,0.459,1.351,1.297,1.351c0.459,0,0.972-0.108,1.35-0.27v3.593c-0.486,0.216-1.405,0.378-2.35,0.378
					c-2.864,0-4.485-1.35-4.485-4.43V103.858z"/>
				<path fill="#2E2A25" d="M352.245,112.719v-0.622c-0.405,0.405-1.621,0.838-2.918,0.838c-2.405,0-4.43-1.351-4.43-3.917
					c0-2.35,2.026-3.863,4.674-3.863c1,0,2.188,0.324,2.674,0.675v-0.783c0-0.783-0.459-1.459-1.486-1.459
					c-0.784,0-1.243,0.351-1.432,0.892h-3.998c0.351-2.35,2.432-4.214,5.565-4.214c3.458,0,5.43,1.837,5.43,4.998v7.456H352.245z
					 M352.245,108.613c-0.271-0.513-1-0.838-1.783-0.838c-0.837,0-1.675,0.351-1.675,1.162c0,0.838,0.837,1.189,1.675,1.189
					c0.784,0,1.513-0.324,1.783-0.81V108.613z"/>
				<path fill="#2E2A25" d="M362.645,112.719h-4.241v-17.56h4.241V112.719z"/>
				<path fill="#2E2A25" d="M122.373,137.44c-0.631,0.721-1.952,1.382-3.334,1.382c-3.904,0-6.037-3.153-6.037-7.058
					s2.133-7.058,6.037-7.058c1.382,0,2.703,0.661,3.334,1.382v-7.088h4.715v19.522h-4.715V137.44z M122.373,129.961
					c-0.361-0.721-1.171-1.262-2.072-1.262c-1.622,0-2.583,1.322-2.583,3.064s0.961,3.034,2.583,3.034
					c0.931,0,1.712-0.511,2.072-1.262V129.961z"/>
				<path fill="#2E2A25" d="M142.103,133.806c-0.481,3.123-2.823,5.015-6.338,5.015c-4.144,0-6.878-2.853-6.878-7.058
					c0-4.175,2.883-7.058,6.788-7.058c4.145,0,6.488,2.763,6.488,6.788v1.171h-8.74c0.15,1.622,0.991,2.493,2.342,2.493
					c0.961,0,1.712-0.42,1.982-1.351H142.103z M133.513,130.322h4.084c-0.06-1.111-0.751-1.952-1.922-1.952
					C134.564,128.369,133.813,129.06,133.513,130.322z"/>
			</g>
		</g>
		<path fill-rule="evenodd" clip-rule="evenodd" fill="#FF671B" d="M263.527,133.495c0.234,1.695,1.043,2.686,3.862,2.686
			c2.402,0,4.909-0.364,6.789-1.04v2.425c-1.385,0.757-4.464,1.254-6.683,1.254c-5.875,0-7.806-1.464-7.806-7.31
			c0-5.103,1.671-7.021,7.727-7.021c5.014,0,7.23,1.684,7.282,4.524C274.699,132.53,272.299,133.39,263.527,133.495z
			 M226.854,122.421h-3.656v-3.519h3.656V122.421z M178.407,136.104c2.676,0,3.458-0.391,3.458-1.721v-2.167l-3.275,0.155
			c-3.289,0.184-4.047,0.656-4.047,1.751C174.543,135.768,175.04,136.104,178.407,136.104z M226.854,138.585h-3.656v-13.782h3.656
			V138.585z M277.466,129.241c0-3.733,2.715-4.804,5.175-4.804c1.144,0,4.163,0.157,4.788,0.287v2.623h-3.879
			c-1.984,0-2.479,0.183-2.479,2.102v9.136h-3.605V129.241z M161.048,136.104c-3.72,0-4.281-0.624-4.281-4.803
			c0-3.56,1.161-4.058,4.124-4.058c2.984,0,4.151,0.497,4.151,4.058C165.043,135.48,164.389,136.104,161.048,136.104z
			 M257.602,127.558h-6.03v6.722c0,1.253,0.914,1.748,2.403,1.748c1.67,0,2.844-0.155,3.706-0.364v2.479
			c-1.436,0.392-2.925,0.626-4.151,0.626c-3.993,0-5.509-1.67-5.509-4.176v-14.123h3.55v4.438h6.03V127.558z M233.718,138.585
			v-8.666c0-2.101,0.731-2.676,3.785-2.676c3.159,0,3.836,0.575,3.836,2.676v8.666h3.629v-8.796c0-3.929-2.872-5.22-6.814-5.22
			h-1.227c-3.966,0-6.811,1.291-6.811,5.22v8.796H233.718z M192.006,138.585v-8.666c0-2.101,0.731-2.676,3.799-2.676
			c3.131,0,3.836,0.575,3.836,2.676v8.666h3.602v-8.796c0-3.929-2.845-5.22-6.8-5.22h-1.214c-3.967,0-6.826,1.291-6.826,5.22v8.796
			H192.006z M210.094,132.996v5.589h-3.574v-19.683h3.601v10.991h0.679c1.07,0,1.436-0.184,2.18-0.941l4.229-4.15h4.163
			l-6.422,6.551l6.918,7.232h-4.634l-4.412-4.724c-0.742-0.785-1.03-0.865-2.101-0.865H210.094z M181.865,129.815v-0.652
			c0-1.579-1.044-1.92-3.797-1.92c-2.593,0-4.902,0.549-6.095,0.953v-2.571c2.076-0.795,4.437-1.109,6.225-1.109
			c3.954,0,7.295,0.626,7.295,5.091v4.201c0,4.927-4.019,4.959-7.295,4.959c-4.935,0-7.343-1.383-7.343-4.176
			C170.855,130.833,173.263,130.101,181.865,129.815z M161.101,138.768c5.135,0,7.673-1.54,7.673-7.047
			c0-4.972-1.893-7.205-6.983-7.205c-2.232,0-3.758,0.183-4.871,1.109v-6.722h-3.612v13.157
			C153.309,137.098,155.514,138.768,161.101,138.768z M287.429,138.585H283.8v-3.504h3.629V138.585z M265.432,130.807
			c4.725-0.208,5.484-0.601,5.484-1.698c0-1.291-0.862-1.917-3.55-1.917c-3.446,0-3.89,0.644-3.89,3.72L265.432,130.807z"/>
	</g>
</g>
</svg>
